<svg xmlns="http://www.w3.org/2000/svg" viewBox="0 0 180.72 184.45"><defs><style>.cls-1,.cls-2{fill:none;stroke:#302f3c;stroke-width:16px;}.cls-1{stroke-linecap:round;}</style></defs><g id="Layer_2" data-name="Layer 2"><g id="Layer_1-2" data-name="Layer 1"><path class="cls-1" d="M63.32,45.06l-1.94,4.63a39.81,39.81,0,0,0-2.26,23.64A30.3,30.3,0,0,0,83.45,96.94l1.07.19a33.15,33.15,0,0,0,11.67,0l1.07-.19A30.3,30.3,0,0,0,121.6,73.33a39.89,39.89,0,0,0-2.26-23.64l-1.94-4.63"/><path class="cls-2" d="M169.74,123.7a65.49,65.49,0,0,1-48.46,49.07,131.65,131.65,0,0,1-61.84,0A65.49,65.49,0,0,1,11,123.7a119.58,119.58,0,0,1,3.45-65.21l1.07-3.12A67.66,67.66,0,0,1,67.13,10.76L73.7,9.54a91,91,0,0,1,33.32,0l6.57,1.22a67.66,67.66,0,0,1,51.63,44.61l1.07,3.12A119.58,119.58,0,0,1,169.74,123.7Z"/></g></g></svg>