<svg xmlns="http://www.w3.org/2000/svg" viewBox="0 0 422.29 253.38"><g id="Layer_2" data-name="Layer 2"><g id="Layer_1-2" data-name="Layer 1"><path d="M338.17,84.46a84.45,84.45,0,0,0-30.64,5.6L256.28,7.48A15.85,15.85,0,0,0,242.82,0H200.59A10.56,10.56,0,0,0,190,10.56V21.11a10.56,10.56,0,0,0,10.56,10.56H234l9.83,15.84H168.92V37a10.56,10.56,0,0,0-10.56-10.56H100.65A16.13,16.13,0,0,0,84.46,42.52,15.85,15.85,0,0,0,100.3,58.07h32.15L113,89.42A84.47,84.47,0,1,0,166.26,190h34.33a15.83,15.83,0,0,0,13.47-7.5l56.72-91.62,9.85,15.88a84.24,84.24,0,0,0-27.25,62.31c.09,45.42,38.2,83.83,83.62,84.27a84.45,84.45,0,0,0,85.28-83.13c.72-46.81-37.29-85.6-84.11-85.78ZM123.22,133.14a52.55,52.55,0,0,1,13,25.22H107.61ZM84.46,221.7A52.79,52.79,0,1,1,95.74,117.36l-30,48.5A15.84,15.84,0,0,0,79.18,190h53.65A52.86,52.86,0,0,1,84.46,221.7Zm107.31-63.34H168.26a84.27,84.27,0,0,0-28-52.8l16.33-26.38h84.16l-49,79.18ZM335,221.63a52.74,52.74,0,0,1-37.14-87.11l29.32,47.23a10.55,10.55,0,0,0,14.53,3.41l9-5.57a10.56,10.56,0,0,0,3.41-14.54l-29.35-47.27A52.79,52.79,0,1,1,335,221.63Z"/></g></g></svg>