<svg xmlns="http://www.w3.org/2000/svg" viewBox="0 0 337.16 337.16"><defs><style>.cls-1{fill-opacity:0.4;}</style></defs><g id="Layer_2" data-name="Layer 2"><g id="Layer_1-2" data-name="Layer 1"><path class="cls-1" d="M18.43,199.37l12.62-3Zm0-94.35,12.62,3ZM286,105l12.62-3Zm0,94.35-12.63-3ZM199.37,286l-3-12.63ZM105,286l-3,12.62Zm0-267.54-3-12.63Zm94.35,0,3-12.63ZM315,333.36A13,13,0,0,0,333.36,315Zm-284-137a193.66,193.66,0,0,1,0-88.43L5.8,102.06a219.67,219.67,0,0,0,0,100.27ZM273.34,108a193.66,193.66,0,0,1,0,88.43l25.25,5.92a219.4,219.4,0,0,0,0-100.27ZM196.41,273.34a193.66,193.66,0,0,1-88.43,0l-5.92,25.25a219.4,219.4,0,0,0,100.27,0ZM108,31.05a193.66,193.66,0,0,1,88.43,0L202.33,5.8a219.67,219.67,0,0,0-100.27,0Zm0,242.29a103.24,103.24,0,0,1-76.93-76.93L5.8,202.33a129.16,129.16,0,0,0,96.26,96.26Zm94.35,25.25a129.14,129.14,0,0,0,96.26-96.26l-25.25-5.92a103.23,103.23,0,0,1-76.93,76.93ZM196.41,31.05A103.24,103.24,0,0,1,273.34,108l25.25-5.92A129.16,129.16,0,0,0,202.33,5.8ZM102.06,5.8A129.17,129.17,0,0,0,5.8,102.06L31.05,108A103.26,103.26,0,0,1,108,31.05ZM251.65,270,315,333.36,333.36,315,270,251.65Z"/></g></g></svg>