<svg xmlns="http://www.w3.org/2000/svg" viewBox="0 0 211.74 211.74"><g id="Layer_2" data-name="Layer 2"><g id="Layer_1-2" data-name="Layer 1"><path d="M139.48,22.65c-12.56-30.2-54.67-30.2-67.22,0L65.68,38.49A18.41,18.41,0,0,1,50.83,49.82L32.47,51.9c-31,3.51-43.42,42.14-21.1,63.72L27,130.69a19.16,19.16,0,0,1,5.41,17.48l-3.76,19c-6.25,31.61,27.8,56.28,55.25,38.66L96.16,198a17.89,17.89,0,0,1,19.42,0l12.31,7.9c27.44,17.62,61.5-7.05,55.25-38.66l-3.77-19a19.21,19.21,0,0,1,5.41-17.48l15.59-15.07C222.68,94,210.3,55.41,179.26,51.9l-18.35-2.08a18.41,18.41,0,0,1-14.86-11.33Z"/></g></g></svg>